<svg xmlns="http://www.w3.org/2000/svg" viewBox="0 0 512 512"><defs><linearGradient id="g" x1="0" y1="0" x2="1" y2="1"><stop stop-color="#7770e8"/><stop offset="1" stop-color="#514bbd"/></linearGradient><linearGradient id="m" x1="0" y1="0" x2="0" y2="1"><stop stop-color="#fff"/><stop offset="1" stop-color="#e8e6ff"/></linearGradient></defs><rect width="512" height="512" rx="128" fill="url(#g)"/><circle cx="398" cy="103" r="88" fill="#baf1dc" opacity=".92"/><path d="M256 87c-44 0-80 36-80 80v106c0 44 36 80 80 80s80-36 80-80V167c0-44-36-80-80-80Z" fill="url(#m)"/><path d="M112 258v15c0 80 64 144 144 144s144-64 144-144v-15" fill="none" stroke="#fff" stroke-width="30" stroke-linecap="round"/><path d="M256 417v44m-62 0h124" fill="none" stroke="#fff" stroke-width="30" stroke-linecap="round"/><path d="M143 112 156 78l13 34 34 13-34 13-13 34-13-34-34-13 34-13Z" fill="#fde2a8"/></svg>
